<?xml version="1.0" encoding="utf-8"?><!-- Uploaded to: SVG Repo, www.svgrepo.com, Generator: SVG Repo Mixer Tools -->
<svg version="1.1" id="Uploaded to svgrepo.com" xmlns="http://www.w3.org/2000/svg" xmlns:xlink="http://www.w3.org/1999/xlink" 
	 width="800px" height="800px" viewBox="0 0 32 32" xml:space="preserve">
<style type="text/css">
	.puchipuchi_een{fill:#111918;}
</style>
<path class="puchipuchi_een" d="M16,2C8.268,2,2,8.268,2,16s6.268,14,14,14s14-6.268,14-14S23.732,2,16,2z M16,26
	c-0.552,0-1-0.448-1-1c0-0.552,0.448-1,1-1s1,0.448,1,1C17,25.552,16.552,26,16,26z M17,18.917V21c0,0.552-0.447,1-1,1s-1-0.448-1-1
	v-3c0-0.552,0.447-1,1-1c2.206,0,4-1.794,4-4s-1.794-4-4-4s-4,1.794-4,4c0,0.552-0.447,1-1,1s-1-0.448-1-1c0-3.309,2.691-6,6-6
	s6,2.691,6,6C22,15.968,19.834,18.439,17,18.917z"/>
</svg>